#tb 0: 1/25
0,          0,          0,        1,   304128, 0x027e34c6
0,          1,          1,        1,   304128, 0xc436b3d2
0,          2,          2,        1,   304128, 0x86b77f58
0,          3,          3,        1,   304128, 0x94e279e1
0,          4,          4,        1,   304128, 0x658da060
0,          5,          5,        1,   304128, 0x2005ffb7
0,          6,          6,        1,   304128, 0x4730c6b1
0,          7,          7,        1,   304128, 0x9e29fbca
0,          8,          8,        1,   304128, 0xfcbe105a
0,          9,          9,        1,   304128, 0x96b6af91
0,         10,         10,        1,   304128, 0xe1a4ecd5
0,         11,         11,        1,   304128, 0x53f42f84
0,         12,         12,        1,   304128, 0xa5221a14
0,         13,         13,        1,   304128, 0xaf7d2ab4
0,         14,         14,        1,   304128, 0x1bc8208f
0,         15,         15,        1,   304128, 0x5e090d01
0,         16,         16,        1,   304128, 0xf01de68a
0,         17,         17,        1,   304128, 0x33ad5467
0,         18,         18,        1,   304128, 0x3b37d722
0,         19,         19,        1,   304128, 0x410f0872
0,         20,         20,        1,   304128, 0xc110db2a
0,         21,         21,        1,   304128, 0x2023e6e2
0,         22,         22,        1,   304128, 0xf63fa6fc
0,         23,         23,        1,   304128, 0x25f10ab0
0,         24,         24,        1,   304128, 0x0efe0a9b
0,         25,         25,        1,   304128, 0x5779e963
0,         26,         26,        1,   304128, 0xa43226da
0,         27,         27,        1,   304128, 0xc6d4e99d
0,         28,         28,        1,   304128, 0x39c5e32d
0,         29,         29,        1,   304128, 0x78dd509b
0,         30,         30,        1,   304128, 0x496f07af
0,         31,         31,        1,   304128, 0xb878805c
0,         32,         32,        1,   304128, 0xc62e4825
0,         33,         33,        1,   304128, 0x8e7a2787
0,         34,         34,        1,   304128, 0xebee121d
0,         35,         35,        1,   304128, 0x12f6fd57
0,         36,         36,        1,   304128, 0x08b05d8d
0,         37,         37,        1,   304128, 0x57e02088
0,         38,         38,        1,   304128, 0x6ff1dd89
0,         39,         39,        1,   304128, 0xa5b0e20f
0,         40,         40,        1,   304128, 0x4e9c0cf7
0,         41,         41,        1,   304128, 0x64c93f20
0,         42,         42,        1,   304128, 0x4264e490
0,         43,         43,        1,   304128, 0xd7a3d763
0,         44,         44,        1,   304128, 0x0fecf186
0,         45,         45,        1,   304128, 0x3b87dd16
0,         46,         46,        1,   304128, 0x7f46b1cd
0,         47,         47,        1,   304128, 0xc635aca4
0,         48,         48,        1,   304128, 0xfbaebb8d
0,         49,         49,        1,   304128, 0x73976bb4
